<svg xmlns="http://www.w3.org/2000/svg" width="97" height="22" viewBox="0 0 97 22" fill="none"><path fill-rule="evenodd" clip-rule="evenodd" d="M12 0H24L12 11H24L12 22H0L12 11H0L12 0Z" fill="#ABECD6"></path><path d="M34.07 17L38.312 6.08H40.342L44.57 17H42.694C42.288 15.95 41.868 14.914 41.462 13.864H37.122C36.716 14.914 36.324 15.95 35.918 17H34.07ZM37.752 12.17H40.832C40.384 11.008 39.866 9.678 39.32 8.194H39.292L37.752 12.17Z" fill="white"></path><path d="M45.8964 17V6.08H47.6604V17H45.8964Z" fill="white"></path><path d="M53.5937 17V6.08H55.3577V17H53.5937Z" fill="white"></path><path d="M57.5676 17V9.216H59.1916V10.462H59.2196C59.7796 9.468 60.7456 8.992 61.6976 8.992C62.6636 8.992 63.6716 9.468 64.0776 10.56H64.1056C64.8616 9.384 65.8276 8.992 66.7236 8.992C68.0956 8.992 69.4816 9.958 69.4816 12.1V17H67.8156V12.828C67.8156 11.512 67.3396 10.56 66.2476 10.56C65.1836 10.56 64.3576 11.428 64.3576 12.884V17H62.6916V12.828C62.6916 11.498 62.2156 10.56 61.1096 10.56C60.0596 10.56 59.2196 11.428 59.2196 12.884V17H57.5676Z" fill="white"></path><path d="M73.5295 17.238C72.1995 17.238 70.9535 16.524 70.9535 15.04C70.9535 13.57 72.1575 12.982 73.5575 12.688C75.2095 12.338 75.9095 12.282 75.9095 11.554C75.9095 10.896 75.3495 10.35 74.4535 10.35C73.6695 10.35 73.0255 10.798 72.7595 11.708L71.2055 11.176C71.6815 9.594 73.0815 8.992 74.5375 8.992C76.3015 8.992 77.6035 9.874 77.6035 11.708V14.564C77.6035 15.852 77.7015 16.384 77.8555 17H76.1895C76.0775 16.608 76.0355 16.244 76.0355 15.796H76.0075C75.5735 16.664 74.6635 17.238 73.5295 17.238ZM72.7735 14.984C72.7735 15.6 73.2635 15.95 73.9775 15.95C75.1815 15.95 75.9235 14.886 75.9235 14.018V13.262C75.5175 13.472 74.9155 13.64 74.3135 13.766C73.6135 13.92 72.7735 14.228 72.7735 14.984Z" fill="white"></path><path d="M83.0643 20.304C81.6083 20.304 80.0683 19.828 79.4103 18.064L80.9223 17.518C81.2863 18.428 81.9583 18.89 83.0083 18.89C84.3243 18.89 85.1923 18.12 85.1923 16.16V15.628H85.1643C84.6043 16.58 83.6663 16.972 82.6863 16.972C80.4183 16.972 79.1023 15.152 79.1023 12.982C79.1023 10.644 80.6283 8.992 82.6303 8.992C83.8203 8.992 84.7023 9.566 85.1923 10.42H85.2203V9.216H86.8583V16.16C86.8583 19.324 85.0803 20.304 83.0643 20.304ZM80.8243 12.954C80.8243 14.312 81.7343 15.39 83.0083 15.39C84.2823 15.39 85.2343 14.312 85.2343 12.954C85.2343 11.582 84.2683 10.56 83.0083 10.56C81.7343 10.56 80.8243 11.61 80.8243 12.954Z" fill="white"></path><path d="M92.4162 17.238C90.1342 17.238 88.4262 15.614 88.4262 13.136C88.4262 10.742 90.0362 8.992 92.3042 8.992C94.1102 8.992 96.0002 10.126 96.0002 13.066V13.556H90.1062C90.2322 14.942 91.1982 15.754 92.4162 15.754C93.3822 15.754 94.1382 15.18 94.5022 14.284L96.0562 14.9C95.5242 16.272 94.1802 17.238 92.4162 17.238ZM90.1902 12.366H94.3202C94.2082 10.952 93.2562 10.42 92.2902 10.42C91.1422 10.42 90.3862 11.218 90.1902 12.366Z" fill="white"></path></svg>